<svg width="631" height="663" viewBox="0 0 631 663" fill="none" xmlns="http://www.w3.org/2000/svg">
<path fill-rule="evenodd" clip-rule="evenodd" d="M543.7 543.6L543.5 366C543.5 363.2 542.4 361.1 539.9 359.7L292.6 219.6L355.8 177.2C366.6 170 379.8 170.4 392.8 177.8L609.6 302.2C624.2 310.5 630.2 325 630.2 345.8V496L543.7 543.6ZM327.6 566.7V524.7C327.6 521.8 326.4 519.7 323.8 518.2L187.6 442.3L250.8 399.9C261.7 392.6 274.8 393.1 287.8 400.5L393.7 460.8C409 469.5 414.2 485 414.3 505.1V615.2L327.4 662.7C146 659.2 0 512.3 0 331.5C0 148.5 149.5 0.200195 334 0.200195C452.8 0.200195 557.6 61.3002 616.3 154.3C618.8 158.2 617.4 162.1 613.3 164.4L542.6 204.5C538.2 206.7 534.4 205.7 531.4 200.9C488.8 137.8 416.3 96.2002 334 96.2002C203 96.2002 96.8 201.5 96.8 331.5C96.8 459.3 199.6 563.3 327.6 566.7ZM522.9 554.3L436.3 601.8L436.2 448.1C436.2 445.3 435.1 443.1 432.6 441.8L239.9 333.2L303.1 290.8C313.9 283.5 327 283.9 340 291.4L502.3 384.2C516.9 392.5 522.8 407 522.8 427.8L522.9 554.3Z" fill="white"/>
</svg>
